<?xml version="1.0" encoding="UTF-8" standalone="no"?>
<!-- Generated by IcoMoon.io -->

<svg
   xmlns:dc="http://purl.org/dc/elements/1.1/"
   xmlns:cc="http://creativecommons.org/ns#"
   xmlns:rdf="http://www.w3.org/1999/02/22-rdf-syntax-ns#"
   xmlns:svg="http://www.w3.org/2000/svg"
   xmlns="http://www.w3.org/2000/svg"
   xmlns:sodipodi="http://sodipodi.sourceforge.net/DTD/sodipodi-0.dtd"
   xmlns:inkscape="http://www.inkscape.org/namespaces/inkscape"
   version="1.1"
   width="1024"
   height="1024"
   viewBox="0 0 1024 1024"
   id="svg6271"
   sodipodi:docname="accounts.svg"
   inkscape:version="0.92.3 (2405546, 2018-03-11)">
  <metadata
     id="metadata6277">
    <rdf:RDF>
      <cc:Work
         rdf:about="">
        <dc:format>image/svg+xml</dc:format>
        <dc:type
           rdf:resource="http://purl.org/dc/dcmitype/StillImage" />
      </cc:Work>
    </rdf:RDF>
  </metadata>
  <defs
     id="defs6275" />
  <sodipodi:namedview
     pagecolor="#ffffff"
     bordercolor="#666666"
     borderopacity="1"
     objecttolerance="10"
     gridtolerance="10"
     guidetolerance="10"
     inkscape:pageopacity="0"
     inkscape:pageshadow="2"
     inkscape:window-width="1920"
     inkscape:window-height="1027"
     id="namedview6273"
     showgrid="false"
     inkscape:zoom="0.23046875"
     inkscape:cx="455.59322"
     inkscape:cy="512"
     inkscape:window-x="1912"
     inkscape:window-y="-8"
     inkscape:window-maximized="1"
     inkscape:current-layer="svg6271" />
  <title
     id="title6266" />
  <g
     id="icomoon-ignore" />
  <path
     d="M665 601.493q68 23.5 122.75 65.75t93 97.75 58.75 121.5 20.5 137.5h-64q0-82-29.25-152.25t-80.75-121.75-121.75-80.75-152.25-29.25q-53.5 0-103 13.5t-92.25 38.25-77.5 59.5-59.5 77.5-38.25 92.25-13.5 103h-64q0-72 21-137.75t59.5-120.75 93.25-97 122.25-66.5q-39-21-70-51t-52.75-66.75-33.5-78.5-11.75-85.75q0-66.5 25-124.75t68.5-101.75 101.75-68.5 124.75-25 124.75 25 101.75 68.5 68.5 101.75 25 124.75q0 44-11.75 85.5t-33.5 78-52.5 66.75-69.25 51.25zM256 319.993q0 53 20.25 99.5t55 81.25 81.25 55 99.5 20.25 99.5-20.25 81.25-55 55-81.25 20.25-99.5-20.25-99.5-55-81.25-81.25-55-99.5-20.25-99.5 20.25-81.25 55-55 81.25-20.25 99.5z"
     id="path6269"
     style="fill:#0063b1;fill-opacity:1" />
</svg>
