<?xml version="1.0" encoding="UTF-8" standalone="no"?>
<!-- Generated by IcoMoon.io -->

<svg
   xmlns:dc="http://purl.org/dc/elements/1.1/"
   xmlns:cc="http://creativecommons.org/ns#"
   xmlns:rdf="http://www.w3.org/1999/02/22-rdf-syntax-ns#"
   xmlns:svg="http://www.w3.org/2000/svg"
   xmlns="http://www.w3.org/2000/svg"
   xmlns:sodipodi="http://sodipodi.sourceforge.net/DTD/sodipodi-0.dtd"
   xmlns:inkscape="http://www.inkscape.org/namespaces/inkscape"
   version="1.1"
   width="1024"
   height="1024"
   viewBox="0 0 1024 1024"
   id="svg5699"
   sodipodi:docname="app-center.svg"
   inkscape:version="0.92.3 (2405546, 2018-03-11)">
  <metadata
     id="metadata5705">
    <rdf:RDF>
      <cc:Work
         rdf:about="">
        <dc:format>image/svg+xml</dc:format>
        <dc:type
           rdf:resource="http://purl.org/dc/dcmitype/StillImage" />
      </cc:Work>
    </rdf:RDF>
  </metadata>
  <defs
     id="defs5703" />
  <sodipodi:namedview
     pagecolor="#ffffff"
     bordercolor="#666666"
     borderopacity="1"
     objecttolerance="10"
     gridtolerance="10"
     guidetolerance="10"
     inkscape:pageopacity="0"
     inkscape:pageshadow="2"
     inkscape:window-width="1920"
     inkscape:window-height="1027"
     id="namedview5701"
     showgrid="false"
     inkscape:zoom="0.23046875"
     inkscape:cx="512"
     inkscape:cy="512"
     inkscape:window-x="1912"
     inkscape:window-y="-8"
     inkscape:window-maximized="1"
     inkscape:current-layer="svg5699" />
  <title
     id="title5694" />
  <g
     id="icomoon-ignore" />
  <path
     d="M991.994 736.002h-448v64h128v64h-320v-64h128v-64h-448v-576h960v576zM95.994 224.002v448h832v-448h-832zM223.994 544.002v-64h64v64h-64zM223.994 416.002v-64h64v64h-64zM351.994 544.002v-64h64v64h-64zM351.994 416.002v-64h64v64h-64zM479.994 544.002v-64h64v64h-64zM479.994 416.002v-64h64v64h-64zM607.994 544.002v-64h64v64h-64zM607.994 416.002v-64h64v64h-64zM735.994 544.002v-64h64v64h-64zM735.994 416.002v-64h64v64h-64z"
     id="path5697"
     style="fill:#0063b1;fill-opacity:1" />
</svg>
