<?xml version="1.0" encoding="UTF-8" standalone="no"?>
<!-- Created with Inkscape (http://www.inkscape.org/) -->

<svg
   xmlns:dc="http://purl.org/dc/elements/1.1/"
   xmlns:cc="http://creativecommons.org/ns#"
   xmlns:rdf="http://www.w3.org/1999/02/22-rdf-syntax-ns#"
   xmlns:svg="http://www.w3.org/2000/svg"
   xmlns="http://www.w3.org/2000/svg"
   xmlns:sodipodi="http://sodipodi.sourceforge.net/DTD/sodipodi-0.dtd"
   xmlns:inkscape="http://www.inkscape.org/namespaces/inkscape"
   version="1.1"
   id="svg830"
   width="72"
   height="72"
   viewBox="0 0 72 72"
   sodipodi:docname="Devices.svg"
   inkscape:version="0.92.3 (2405546, 2018-03-11)">
  <metadata
     id="metadata836">
    <rdf:RDF>
      <cc:Work
         rdf:about="">
        <dc:format>image/svg+xml</dc:format>
        <dc:type
           rdf:resource="http://purl.org/dc/dcmitype/StillImage" />
        <dc:title></dc:title>
      </cc:Work>
    </rdf:RDF>
  </metadata>
  <defs
     id="defs834" />
  <sodipodi:namedview
     pagecolor="#ffffff"
     bordercolor="#666666"
     borderopacity="1"
     objecttolerance="10"
     gridtolerance="10"
     guidetolerance="10"
     inkscape:pageopacity="0"
     inkscape:pageshadow="2"
     inkscape:window-width="1920"
     inkscape:window-height="1027"
     id="namedview832"
     showgrid="false"
     inkscape:zoom="6.5555556"
     inkscape:cx="42.328794"
     inkscape:cy="46.265984"
     inkscape:window-x="1912"
     inkscape:window-y="-8"
     inkscape:window-maximized="1"
     inkscape:current-layer="svg830" />
  <path
     style="fill:#0063b1;fill-opacity:1"
     d="m 35.855123,44.008263 v -27.5 h 18 18 v 27.5 27.5 h -18 -18 z m 32,0 v -22.5 h -14 -14 v 22.5 22.5 h 14 14 z m -19,18.5 c -4.148217,-4.148217 -1.03377,-11 5,-11 3.655544,0 7,3.105566 7,6.5 0,3.394434 -3.344456,6.5 -7,6.5 -1.666667,0 -3.888889,-0.888889 -5,-2 z m 6.664167,-3.567217 c 0.83346,-2.171962 -1.282435,-4.214515 -2.79695,-2.7 -1.280033,1.280033 -0.487051,4.267217 1.132783,4.267217 0.584523,0 1.333399,-0.705248 1.664167,-1.567217 z M 45.932046,43.43134 c -2.589337,-2.589337 -3.076923,-3.844872 -3.076923,-7.923077 0,-4.078205 0.487586,-5.33374 3.076923,-7.923077 4.435421,-4.435421 11.410733,-4.435421 15.846154,0 2.589337,2.589337 3.076923,3.844872 3.076923,7.923077 0,4.078205 -0.487586,5.33374 -3.076923,7.923077 -2.589337,2.589337 -3.844872,3.076923 -7.923077,3.076923 -4.078205,0 -5.33374,-0.487586 -7.923077,-3.076923 z m 10.37591,-1.905144 c 5.241393,-1.992774 5.284935,-10.026537 0.0651,-12.011115 -5.494168,-2.088879 -10.597961,3.022293 -8.507727,8.520026 0.778963,2.048828 2.350803,3.270296 5.674694,4.40977 0.101696,0.03486 1.347265,-0.378544 2.767933,-0.918681 z M 51.243663,37.0784 c -0.995668,-2.594671 0.399883,-4.739185 2.856989,-4.390274 3.2046,0.455056 3.2046,5.185218 0,5.640274 -1.352279,0.192025 -2.495586,-0.308199 -2.856989,-1.25 z M 0.30033727,38.226089 c -0.27060903,-0.705195 -0.36898503,-9.592695 -0.21861503,-19.75 L 0.35512327,0.00826276 h 33.49999973 33.5 l 0.29569,6.75000004 c 0.272908,6.2299482 0.13808,6.7500002 -1.75,6.7500002 -1.788161,0 -2.04569,-0.629442 -2.04569,-5.0000002 V 3.5082627 h -30 -29.9999997 v 16.0000003 16 H 17.855123 c 13.333333,0 14,0.09524 14,2 0,1.914152 -0.666667,2 -15.531385,2 -11.7104717,0 -15.65242673,-0.315431 -16.02340073,-1.282174 z M 7.8551233,29.008263 c 0,-2.25 0.4,-2.5 3.9999997,-2.5 3.6,0 4,0.25 4,2.5 0,2.25 -0.4,2.5 -4,2.5 -3.5999997,0 -3.9999997,-0.25 -3.9999997,-2.5 z m 11.9999997,0 c 0,-2.388889 0.266667,-2.5 6,-2.5 5.733333,0 6,0.111111 6,2.5 0,2.388889 -0.266667,2.5 -6,2.5 -5.733333,0 -6,-0.111111 -6,-2.5 z m -11.9999997,-10 c 0,-2.25 0.4,-2.5 3.9999997,-2.5 3.6,0 4,0.25 4,2.5 0,2.25 -0.4,2.5 -4,2.5 -3.5999997,0 -3.9999997,-0.25 -3.9999997,-2.5 z m 11.9999997,0 c 0,-1.833333 0.533333,-2.5 2,-2.5 1.466667,0 2,0.666667 2,2.5 0,1.833333 -0.533333,2.5 -2,2.5 -1.466667,0 -2,-0.666667 -2,-2.5 z m 8,0 c 0,-1.833333 0.533333,-2.5 2,-2.5 1.466667,0 2,0.666667 2,2.5 0,1.833333 -0.533333,2.5 -2,2.5 -1.466667,0 -2,-0.666667 -2,-2.5 z M 7.8551233,9.0082628 c 0,-1.833333 0.533333,-2.5 1.9999995,-2.5 1.4666672,0 2.0000002,0.666667 2.0000002,2.5 0,1.8333332 -0.533333,2.5000002 -2.0000002,2.5000002 -1.4666665,0 -1.9999995,-0.666667 -1.9999995,-2.5000002 z m 7.9999997,0 c 0,-1.833333 0.533333,-2.5 2,-2.5 1.466667,0 2,0.666667 2,2.5 0,1.8333332 -0.533333,2.5000002 -2,2.5000002 -1.466667,0 -2,-0.666667 -2,-2.5000002 z m 8,0 c 0,-1.833333 0.533333,-2.5 2,-2.5 1.466667,0 2,0.666667 2,2.5 0,1.8333332 -0.533333,2.5000002 -2,2.5000002 -1.466667,0 -2,-0.666667 -2,-2.5000002 z m 8,0 c 0,-1.833333 0.533333,-2.5 2,-2.5 1.466667,0 2,0.666667 2,2.5 0,1.8333332 -0.533333,2.5000002 -2,2.5000002 -1.466667,0 -2,-0.666667 -2,-2.5000002 z m 8,0 c 0,-1.833333 0.533333,-2.5 2,-2.5 1.466667,0 2,0.666667 2,2.5 0,1.8333332 -0.533333,2.5000002 -2,2.5000002 -1.466667,0 -2,-0.666667 -2,-2.5000002 z m 8,0 c 0,-1.833333 0.533333,-2.5 2,-2.5 1.466667,0 2,0.666667 2,2.5 0,1.8333332 -0.533333,2.5000002 -2,2.5000002 -1.466667,0 -2,-0.666667 -2,-2.5000002 z m 8,0 c 0,-1.833333 0.533333,-2.5 2,-2.5 1.466667,0 2,0.666667 2,2.5 0,1.8333332 -0.533333,2.5000002 -2,2.5000002 -1.466667,0 -2,-0.666667 -2,-2.5000002 z"
     id="path840"
     inkscape:connector-curvature="0" />
</svg>
