<?xml version="1.0" encoding="UTF-8" standalone="no"?>
<!-- Generated by IcoMoon.io -->

<svg
   xmlns:dc="http://purl.org/dc/elements/1.1/"
   xmlns:cc="http://creativecommons.org/ns#"
   xmlns:rdf="http://www.w3.org/1999/02/22-rdf-syntax-ns#"
   xmlns:svg="http://www.w3.org/2000/svg"
   xmlns="http://www.w3.org/2000/svg"
   xmlns:sodipodi="http://sodipodi.sourceforge.net/DTD/sodipodi-0.dtd"
   xmlns:inkscape="http://www.inkscape.org/namespaces/inkscape"
   version="1.1"
   width="1024"
   height="1024"
   viewBox="0 0 1024 1024"
   id="svg4555"
   sodipodi:docname="system.svg"
   inkscape:version="0.92.3 (2405546, 2018-03-11)">
  <metadata
     id="metadata4561">
    <rdf:RDF>
      <cc:Work
         rdf:about="">
        <dc:format>image/svg+xml</dc:format>
        <dc:type
           rdf:resource="http://purl.org/dc/dcmitype/StillImage" />
      </cc:Work>
    </rdf:RDF>
  </metadata>
  <defs
     id="defs4559" />
  <sodipodi:namedview
     pagecolor="#ffffff"
     bordercolor="#666666"
     borderopacity="1"
     objecttolerance="10"
     gridtolerance="10"
     guidetolerance="10"
     inkscape:pageopacity="0"
     inkscape:pageshadow="2"
     inkscape:window-width="1920"
     inkscape:window-height="1027"
     id="namedview4557"
     showgrid="false"
     inkscape:zoom="0.23046875"
     inkscape:cx="455.59322"
     inkscape:cy="512"
     inkscape:window-x="1912"
     inkscape:window-y="-8"
     inkscape:window-maximized="1"
     inkscape:current-layer="svg4555" />
  <title
     id="title4550" />
  <g
     id="icomoon-ignore" />
  <path
     d="M999.993 730.498q6 6 10.5 14.5t7.5 18 4.5 19.25 1.5 17.75q0 13.5-5 25t-13.75 20.25-20.25 13.75-25 5h-896q-13.5 0-25-5t-20.25-13.75-13.75-20.25-5-25q0-8 1.5-17.75t4.5-19.25 7.5-18 10.5-14.5l104-104v-466.5h768v466.5zM191.993 607.998h640v-384h-640v384zM959.993 799.998q0-5.5-2-14.25t-6-12.75l-101.5-101h-677l-101.5 101q-4 4-6 12.75t-2 14.25h896z"
     id="path4553"
     style="fill:#0063b1;fill-opacity:1" />
</svg>
