<?xml version="1.0" encoding="UTF-8" standalone="no"?>
<!-- Generated by IcoMoon.io -->

<svg
   xmlns:dc="http://purl.org/dc/elements/1.1/"
   xmlns:cc="http://creativecommons.org/ns#"
   xmlns:rdf="http://www.w3.org/1999/02/22-rdf-syntax-ns#"
   xmlns:svg="http://www.w3.org/2000/svg"
   xmlns="http://www.w3.org/2000/svg"
   xmlns:sodipodi="http://sodipodi.sourceforge.net/DTD/sodipodi-0.dtd"
   xmlns:inkscape="http://www.inkscape.org/namespaces/inkscape"
   version="1.1"
   width="1024"
   height="1024"
   viewBox="0 0 1024 1024"
   id="svg5127"
   sodipodi:docname="theme-center.svg"
   inkscape:version="0.92.3 (2405546, 2018-03-11)">
  <metadata
     id="metadata5133">
    <rdf:RDF>
      <cc:Work
         rdf:about="">
        <dc:format>image/svg+xml</dc:format>
        <dc:type
           rdf:resource="http://purl.org/dc/dcmitype/StillImage" />
      </cc:Work>
    </rdf:RDF>
  </metadata>
  <defs
     id="defs5131" />
  <sodipodi:namedview
     pagecolor="#ffffff"
     bordercolor="#666666"
     borderopacity="1"
     objecttolerance="10"
     gridtolerance="10"
     guidetolerance="10"
     inkscape:pageopacity="0"
     inkscape:pageshadow="2"
     inkscape:window-width="1920"
     inkscape:window-height="1027"
     id="namedview5129"
     showgrid="false"
     inkscape:zoom="0.23046875"
     inkscape:cx="455.59322"
     inkscape:cy="512"
     inkscape:window-x="1912"
     inkscape:window-y="-8"
     inkscape:window-maximized="1"
     inkscape:current-layer="svg5127" />
  <title
     id="title5122" />
  <g
     id="icomoon-ignore" />
  <path
     d="M512.001 0.008q70.5 0 136 18.25t122.5 51.5 103.75 80 80 103.75 51.5 122.5 18.25 136-18.25 136-51.5 122.5-80 103.75-103.75 80-122.5 51.5-136 18.25q-26.5 0-49.75-10.25t-40.5-27.5-27.5-40.5-10.25-49.75q0-24.5 4.75-42.75t11.75-33.25 15.5-28 15.5-26.25 11.75-28 4.75-33.75q0-26-10.25-49.5t-27.5-40.75-40.75-27.5-49.5-10.25q-19 0-33.75 4.75t-28 11.75-26.25 15.5-28 15.5-33.5 11.75-42.5 4.75q-26.5 0-49.75-10.25t-40.5-27.5-27.5-40.5-10.25-49.75q0-70.5 18.25-136t51.5-122.5 80-103.75 103.75-80 122.25-51.5 136.25-18.25zM512.001 960.008q61.5 0 118.75-16t107-45.25 90.75-70.25 70.25-90.75 45.25-107 16-118.75-16-118.75-45.25-107-70.25-90.75-90.75-70.25-107-45.25-118.75-16-118.75 16-107 45.25-90.75 70.25-70.25 90.75-45.25 107-16 118.75q0 13.5 5 25t13.75 20.25 20.25 13.75 25 5q19 0 33.75-4.75t28-11.75 26-15.5 27.5-15.5 33.25-11.75 43.5-4.75q40 0 75 15t61 41 41 61 15 75q0 24.5-4.75 43.25t-11.75 33.5-15.5 27.5-15.5 26-11.75 28-4.75 33.75q0 13.5 5 25t13.75 20.25 20.25 13.75 25 5zM256.001 320.008q13.5 0 25 5t20.25 13.75 13.75 20.25 5 25-5 25-13.75 20.25-20.25 13.75-25 5-25-5-20.25-13.75-13.75-20.25-5-25 5-25 13.75-20.25 20.25-13.75 25-5zM448.001 192.008q13.5 0 25 5t20.25 13.75 13.75 20.25 5 25-5 25-13.75 20.25-20.25 13.75-25 5-25-5-20.25-13.75-13.75-20.25-5-25 5-25 13.75-20.25 20.25-13.75 25-5zM704.001 384.008q-13.5 0-25-5t-20.25-13.75-13.75-20.25-5-25 5-25 13.75-20.25 20.25-13.75 25-5 25 5 20.25 13.75 13.75 20.25 5 25-5 25-13.75 20.25-20.25 13.75-25 5zM768.001 512.008q13.5 0 25 5t20.25 13.75 13.75 20.25 5 25-5 25-13.75 20.25-20.25 13.75-25 5-25-5-20.25-13.75-13.75-20.25-5-25 5-25 13.75-20.25 20.25-13.75 25-5zM640.001 704.008q13.5 0 25 5t20.25 13.75 13.75 20.25 5 25-5 25-13.75 20.25-20.25 13.75-25 5-25-5-20.25-13.75-13.75-20.25-5-25 5-25 13.75-20.25 20.25-13.75 25-5z"
     id="path5125"
     style="fill:#0063b1;fill-opacity:1" />
</svg>
